<?xml version="1.0" encoding="UTF-8"?>
<svg xmlns="http://www.w3.org/2000/svg" xmlns:xlink="http://www.w3.org/1999/xlink" viewBox="0 0 50 50" width="50px" height="50px">
<g id="surface4925339">
<path style=" stroke:none;fill-rule:nonzero;fill:rgb(20%,20%,20%);fill-opacity:1;" d="M 14 4 C 8.488281 4 4 8.488281 4 14 L 4 36 C 4 41.511719 8.488281 46 14 46 L 36 46 C 41.511719 46 46 41.511719 46 36 L 46 14 C 46 8.488281 41.511719 4 36 4 Z M 14 6 L 36 6 C 40.429688 6 44 9.570312 44 14 L 44 36 C 44 40.429688 40.429688 44 36 44 L 14 44 C 9.570312 44 6 40.429688 6 36 L 6 14 C 6 9.570312 9.570312 6 14 6 Z M 21.132812 12 C 20.078125 12 19.101562 12.554688 18.558594 13.457031 L 16.722656 16.515625 C 16.542969 16.816406 16.21875 17 15.867188 17 L 11 17 C 9.90625 17 9 17.90625 9 19 L 9 35 C 9 36.09375 9.90625 37 11 37 L 39 37 C 40.09375 37 41 36.09375 41 35 L 41 19 C 41 17.90625 40.09375 17 39 17 L 34.132812 17 C 33.78125 17 33.457031 16.816406 33.273438 16.515625 L 31.4375 13.457031 C 30.898438 12.554688 29.917969 12 28.867188 12 Z M 12 14 C 11.449219 14 11 14.449219 11 15 L 11 16 L 15 16 L 15 15 C 15 14.449219 14.550781 14 14 14 Z M 21.132812 14 L 28.867188 14 C 29.21875 14 29.542969 14.183594 29.722656 14.484375 C 29.722656 14.484375 29.722656 14.484375 29.722656 14.488281 L 31.558594 17.542969 C 32.097656 18.445312 33.078125 19 34.132812 19 L 39 19 L 39 35 L 11 35 L 11 19 L 15.867188 19 C 16.917969 19 17.898438 18.445312 18.441406 17.546875 C 18.441406 17.542969 18.441406 17.542969 18.441406 17.542969 L 20.277344 14.488281 C 20.277344 14.484375 20.277344 14.484375 20.277344 14.484375 C 20.457031 14.183594 20.78125 14 21.132812 14 Z M 25 20 C 21.144531 20 18 23.144531 18 27 C 18 30.855469 21.144531 34 25 34 C 28.855469 34 32 30.855469 32 27 C 32 23.144531 28.855469 20 25 20 Z M 34 20 C 33.449219 20 33 20.449219 33 21 C 33 21.550781 33.449219 22 34 22 C 34.550781 22 35 21.550781 35 21 C 35 20.449219 34.550781 20 34 20 Z M 25 22 C 27.773438 22 30 24.226562 30 27 C 30 29.773438 27.773438 32 25 32 C 22.226562 32 20 29.773438 20 27 C 20 24.226562 22.226562 22 25 22 Z M 25 22 "/>
</g>
</svg>
